# xmcd CD database file
#
# Track frame offsets:
#	150
#	19472
#	39690
#	56642
#	79410
#	98747
#	119732
#	133690
#	157802
#	183387
#
# Disc length: 2707 seconds
#
# Revision: 0
# Processed by: cddbd v1.5.1PL0 Copyright (c) Steve Scherf et al.
# Submitted via: CDex 1.51
#
DISCID=890a910a
DTITLE=折原みと - 神様の言うとおり！
DYEAR=1995
DGENRE=Anime
TTITLE0=朝露は「元気」の薬〜神様の言うとおり！〜
TTITLE1=HEART VOICE
TTITLE2=The city lights of N.Y.
TTITLE3=天使の飛行船〜A BOY and A GIRL〜
TTITLE4=Posy Song
TTITLE5=悪魔降臨〜悪魔のテーマ〜
TTITLE6=ゴッド・フォースのテーマ
TTITLE7=GEMINIの願い事
TTITLE8=守りたい
TTITLE9=神様だけが知っている
EXTD=YEAR: 1995
EXTT0=
EXTT1=
EXTT2=
EXTT3=
EXTT4=
EXTT5=
EXTT6=
EXTT7=
EXTT8=
EXTT9=
PLAYORDER=
